<?xml version="1.0" encoding="UTF-8" standalone="no"?>
<svg
   xmlns:dc="http://purl.org/dc/elements/1.1/"
   xmlns:cc="http://creativecommons.org/ns#"
   xmlns:rdf="http://www.w3.org/1999/02/22-rdf-syntax-ns#"
   xmlns:svg="http://www.w3.org/2000/svg"
   xmlns="http://www.w3.org/2000/svg"
   xmlns:sodipodi="http://sodipodi.sourceforge.net/DTD/sodipodi-0.dtd"
   xmlns:inkscape="http://www.inkscape.org/namespaces/inkscape"
   style="height: 512px; width: 512px;"
   viewBox="0 0 512 512"
   version="1.1"
   id="svg1007"
   sodipodi:docname="bear.svg"
   inkscape:version="1.0.1 (3bc2e813f5, 2020-09-07)">
  <metadata
     id="metadata1013">
    <rdf:RDF>
      <cc:Work
         rdf:about="">
        <dc:format>image/svg+xml</dc:format>
        <dc:type
           rdf:resource="http://purl.org/dc/dcmitype/StillImage" />
      </cc:Work>
    </rdf:RDF>
  </metadata>
  <defs
     id="defs1011" />
  <sodipodi:namedview
     pagecolor="#ffffff"
     bordercolor="#666666"
     borderopacity="1"
     objecttolerance="10"
     gridtolerance="10"
     guidetolerance="10"
     inkscape:pageopacity="0"
     inkscape:pageshadow="2"
     inkscape:window-width="1920"
     inkscape:window-height="1057"
     id="namedview1009"
     showgrid="false"
     inkscape:zoom="1.6933594"
     inkscape:cx="256"
     inkscape:cy="256"
     inkscape:window-x="-8"
     inkscape:window-y="-8"
     inkscape:window-maximized="1"
     inkscape:current-layer="svg1007" />
  <g
     class=""
     transform="translate(0,20)"
     id="g1005">
    <path
       d="m 64.264,44.704 c -88.765,25.213 -39.73,158.676 -2.108,161.887 -8.506,42.218 -13.32,84.645 -12.642,127.824 0.355,22.67 51.374,58.424 105.35,86.035 31.616,46.337 84.116,46.426 101.136,46.846 17.02,-0.42 69.52,-0.51 101.137,-46.846 53.975,-27.61 104.994,-63.364 105.35,-86.035 0.677,-43.179 -4.137,-85.606 -12.643,-127.824 C 487.467,203.38 536.501,69.917 447.736,44.704 419.303,46.166 392.13,60.856 365.564,81.927 317.64,62.233 293.164,61.296 256,61.296 c -37.163,0 -61.639,0.937 -109.564,20.63 C 119.87,60.856 92.697,46.166 64.264,44.704 Z m 4.927,49.928 c 6.057,-0.096 17.237,5.625 26.809,14.664 3.362,3.175 -22.916,51.05 -26.818,50.158 -4.59,-1.05 -14.985,-48.285 -3.725,-63.318 0.745,-0.994 2.039,-1.477 3.734,-1.504 z m 373.618,0 c 1.695,0.027 2.99,0.51 3.734,1.504 11.26,15.033 0.865,62.268 -3.725,63.318 -3.902,0.893 -30.18,-46.983 -26.818,-50.158 9.572,-9.04 20.752,-14.76 26.809,-14.664 z m -260.85,82.088 c 17.457,-0.304 30.686,24.445 42.041,44.576 -53.57,15.878 -82.575,-17.11 -57.752,-37.777 5.603,-4.665 10.823,-6.714 15.711,-6.8 z m 148.082,0 c 4.888,0.085 10.108,2.134 15.711,6.799 24.823,20.667 -4.181,53.655 -57.752,37.777 11.355,-20.13 24.584,-44.88 42.041,-44.576 z M 256,251.548 c 17.32,0.223 36.826,9.567 30.197,36.517 -1.444,5.872 -12.516,8.617 -21.197,9.7 l 0,22.99737 c 99.884,41.126 79.565,96.48288 -9,96.48288 -88.565,0 -108.884,-55.35688 -9,-96.48288 l 0,-22.99737 c -8.68,-1.083 -19.753,-3.828 -21.197,-9.7 -6.629,-26.95 12.877,-36.294 30.197,-36.517 z"
       fill="#ffffff"
       fill-opacity="1"
       transform="matrix(0.8,0,0,0.8,51.2,51.2)"
       id="path1003"
       style="fill:#000000;fill-opacity:1"
       sodipodi:nodetypes="ccccccccccsccccccccccccccsccccccccccscccc" />
  </g>
</svg>
