<?xml version="1.0" encoding="UTF-8" standalone="no"?>
<svg
   xmlns:dc="http://purl.org/dc/elements/1.1/"
   xmlns:cc="http://creativecommons.org/ns#"
   xmlns:rdf="http://www.w3.org/1999/02/22-rdf-syntax-ns#"
   xmlns:svg="http://www.w3.org/2000/svg"
   xmlns="http://www.w3.org/2000/svg"
   xmlns:sodipodi="http://sodipodi.sourceforge.net/DTD/sodipodi-0.dtd"
   xmlns:inkscape="http://www.inkscape.org/namespaces/inkscape"
   style="height: 512px; width: 512px;"
   viewBox="0 0 512 512"
   version="1.1"
   id="svg1051"
   sodipodi:docname="criminal.svg"
   inkscape:version="1.0.1 (3bc2e813f5, 2020-09-07)">
  <metadata
     id="metadata1057">
    <rdf:RDF>
      <cc:Work
         rdf:about="">
        <dc:format>image/svg+xml</dc:format>
        <dc:type
           rdf:resource="http://purl.org/dc/dcmitype/StillImage" />
      </cc:Work>
    </rdf:RDF>
  </metadata>
  <defs
     id="defs1055" />
  <sodipodi:namedview
     pagecolor="#ffffff"
     bordercolor="#666666"
     borderopacity="1"
     objecttolerance="10"
     gridtolerance="10"
     guidetolerance="10"
     inkscape:pageopacity="0"
     inkscape:pageshadow="2"
     inkscape:window-width="1920"
     inkscape:window-height="1057"
     id="namedview1053"
     showgrid="false"
     inkscape:zoom="1.7382812"
     inkscape:cx="256"
     inkscape:cy="256"
     inkscape:window-x="-8"
     inkscape:window-y="-8"
     inkscape:window-maximized="1"
     inkscape:current-layer="svg1051"
     inkscape:document-rotation="0" />
  <g
     class=""
     id="g1049"
     style="fill:#000000;fill-opacity:1"
     transform="matrix(1,0,0,0.9187103,0,39.506792)">
    <path
       d="M 390.311,366.216 C 384.752,433.264 326.724,486 255.95,486 185.175,486 127.147,433.264 121.587,366.216 q 4.26,7.76 8.918,15.07 c 33.406,52.275 77.961,81.064 125.435,81.064 47.473,0 92.038,-28.789 125.445,-81.094 q 4.668,-7.27 8.927,-15.04 z m 23.63,-163.305 c 0,61.673 -16.893,123.48 -46.348,169.56 C 337.3,419.874 297.648,445.97 256,445.97 214.352,445.97 174.66,419.863 144.407,372.472 114.952,326.402 98.06,264.585 98.06,202.912 98.06,155.817 111.123,112.756 134.834,81.694 162.538,45.268 204.452,26 255.95,26 c 51.498,0 93.441,19.247 121.227,55.674 23.7,31.072 36.754,74.122 36.754,121.227 z m -175.847,1.024 c 1.29,-7.822 -56.995,-27.069 -73.713,-29.823 -16.719,-2.754 -27.97,-4.095 -30.714,12.593 a 30.632,30.632 0 0 0 25.237,35.218 c 16.698,2.785 77.859,-9.92 79.18,-17.957 z m 73.928,135.612 c 0,-11.262 -18.981,-20.302 -56.073,-20.302 -37.092,0 -56.073,9.091 -56.073,20.302 0,11.21 18.98,20.301 56.073,20.301 37.092,0 56.073,-9.06 56.073,-20.27 z m 66.209,-152.812 c -2.754,-16.698 -14.037,-15.357 -30.714,-12.592 -16.678,2.764 -74.983,22.001 -73.713,29.823 1.32,8.037 62.451,20.732 79.18,17.978 a 30.632,30.632 0 0 0 25.247,-35.209 z"
       fill="#ffffff"
       fill-opacity="1"
       id="path1047"
       style="fill:#000000;fill-opacity:1" />
  </g>
</svg>
