<?xml version="1.0" encoding="UTF-8" standalone="no"?>
<svg
   xmlns:dc="http://purl.org/dc/elements/1.1/"
   xmlns:cc="http://creativecommons.org/ns#"
   xmlns:rdf="http://www.w3.org/1999/02/22-rdf-syntax-ns#"
   xmlns:svg="http://www.w3.org/2000/svg"
   xmlns="http://www.w3.org/2000/svg"
   xmlns:sodipodi="http://sodipodi.sourceforge.net/DTD/sodipodi-0.dtd"
   xmlns:inkscape="http://www.inkscape.org/namespaces/inkscape"
   viewBox="0 0 512 512"
   version="1.1"
   id="svg879"
   sodipodi:docname="die-six-double.svg"
   inkscape:version="1.0.1 (3bc2e813f5, 2020-09-07)">
  <metadata
     id="metadata885">
    <rdf:RDF>
      <cc:Work
         rdf:about="">
        <dc:format>image/svg+xml</dc:format>
        <dc:type
           rdf:resource="http://purl.org/dc/dcmitype/StillImage" />
        <dc:title></dc:title>
      </cc:Work>
    </rdf:RDF>
  </metadata>
  <defs
     id="defs883" />
  <sodipodi:namedview
     pagecolor="#ffffff"
     bordercolor="#666666"
     borderopacity="1"
     objecttolerance="10"
     gridtolerance="10"
     guidetolerance="10"
     inkscape:pageopacity="0"
     inkscape:pageshadow="2"
     inkscape:window-width="1920"
     inkscape:window-height="1057"
     id="namedview881"
     showgrid="false"
     inkscape:zoom="0.8466797"
     inkscape:cx="307.22649"
     inkscape:cy="370.54974"
     inkscape:window-x="-8"
     inkscape:window-y="-8"
     inkscape:window-maximized="1"
     inkscape:current-layer="svg879"
     inkscape:document-rotation="0" />
  <path
     id="path877"
     style="stroke-width:0.732154"
     d="M 160.05469 17.599609 C 155.5329 17.599609 151.01044 18.612068 147.50781 20.638672 L 35.667969 85.332031 C 28.66125 89.385238 28.66125 95.794449 35.667969 99.847656 L 147.50781 164.54102 C 154.51453 168.59422 165.59362 168.59422 172.59961 164.54102 L 284.4375 99.847656 C 291.44422 95.795181 291.44422 89.384506 284.4375 85.332031 L 172.59961 20.640625 C 169.09625 18.612557 164.57574 17.599609 160.05469 17.599609 z M 28.201172 112.10156 L 28.201172 112.10352 C 23.989087 111.98995 21.125 115.27751 21.125 121.09375 L 21.125 236.55078 C 21.125 244.64255 26.66711 254.24244 33.673828 258.28906 L 141.25 320.41016 C 148.25672 324.45604 153.79883 321.25705 153.79883 313.16602 L 153.79883 197.70703 C 153.79883 189.61526 148.25672 180.01805 141.25 175.9707 L 33.673828 113.84961 C 31.704333 112.71111 29.849252 112.14549 28.201172 112.10156 z M 292.3418 112.10352 C 290.69445 112.14742 288.83937 112.71111 286.86914 113.84961 L 179.29102 175.9707 C 172.2843 180.01732 166.74219 189.61721 166.74219 197.70898 L 166.74219 313.16992 C 166.74219 321.26023 172.2843 324.45751 179.29102 320.41016 L 205.50781 305.27344 L 205.50781 236.94141 C 205.50781 213.02446 209.34707 207.70934 224.70117 199.14648 C 239.05246 191.14288 292.07846 160.47072 299.41797 156.22461 L 299.41797 121.0957 C 299.41797 115.28093 296.55461 111.99272 292.3418 112.10547 L 292.3418 112.10352 z " />
  <g
     id="g938"
     transform="matrix(0.73215447,0,0,0.73215447,169.0933,110.644)" />
  <path
     d="m 488.63766,237.92481 c -1.64735,0.0439 -3.5019,0.60769 -5.47213,1.74619 l -107.57911,62.1211 c -7.00672,4.04662 -12.54913,13.6459 -12.54913,21.73767 v 115.46076 c 0,8.09031 5.54241,11.28836 12.54913,7.24101 l 107.57985,-62.11892 c 7.00671,-4.04661 12.54693,-13.64443 12.54693,-21.7362 V 246.91567 c 0,-5.81477 -2.86273,-9.10215 -7.07554,-8.9894 z"
     id="path944"
     style="stroke-width:0.732154" />
  <path
     d="m 224.49609,237.92335 c -4.21208,-0.11349 -7.07554,3.17462 -7.07554,8.99086 v 115.45782 c 0,8.09177 5.54241,17.69105 12.54913,21.73766 l 107.57545,62.12185 c 7.00672,4.04588 12.54913,0.84637 12.54913,-7.24467 V 323.52684 c 0,-8.09177 -5.54241,-17.68885 -12.54913,-21.7362 L 229.96968,239.66953 c -1.9695,-1.1385 -3.82551,-1.70372 -5.47359,-1.74765 z"
     id="path942"
     style="stroke-width:0.732154" />
  <path
     d="m 356.34979,143.41978 c -4.52179,0 -9.0443,1.0133 -12.54693,3.0399 l -111.83879,64.69317 c -7.00672,4.05321 -7.00672,10.46249 0,14.51569 l 111.83879,64.69317 c 7.00672,4.0532 18.08641,4.0532 25.0924,0 l 111.83879,-64.69317 c 7.00672,-4.05247 7.00672,-10.46248 0,-14.51496 L 368.89526,146.46041 c -3.50336,-2.02806 -8.02442,-3.04063 -12.54547,-3.04063 z"
     id="path936"
     style="stroke-width:0.732154" />
</svg>
